<svg width="32" height="32" viewBox="0 0 32 32" fill="none" xmlns="http://www.w3.org/2000/svg">
<path d="M0 16C-3.11864e-07 19.5673 1.19215 23.0323 3.38703 25.8444C5.58192 28.6566 8.65363 30.6546 12.1141 31.521C15.5746 32.3873 19.2254 32.0724 22.4864 30.6262C25.7474 29.18 28.4316 26.6855 30.1125 23.539C31.7934 20.3926 32.3745 16.7746 31.7636 13.26C31.1527 9.74539 29.3848 6.53574 26.7408 4.14101C24.0967 1.74628 20.7282 0.303843 17.1705 0.0428721C13.6128 -0.218099 10.0698 0.71737 7.10465 2.70065L16 16L0 16Z" fill="#459173"/>
<circle cx="16.5" cy="16.5" r="14" fill="white"/>
<path d="M6.424 17.624C6.504 18.024 6.676 18.328 6.94 18.536C7.204 18.744 7.56 18.848 8.008 18.848C8.576 18.848 8.992 18.624 9.256 18.176C9.52 17.728 9.652 16.964 9.652 15.884C9.46 16.156 9.188 16.368 8.836 16.52C8.492 16.664 8.116 16.736 7.708 16.736C7.188 16.736 6.716 16.632 6.292 16.424C5.868 16.208 5.532 15.892 5.284 15.476C5.044 15.052 4.924 14.54 4.924 13.94C4.924 13.06 5.18 12.36 5.692 11.84C6.212 11.312 6.924 11.048 7.828 11.048C8.916 11.048 9.688 11.412 10.144 12.14C10.608 12.86 10.84 13.968 10.84 15.464C10.84 16.496 10.752 17.34 10.576 17.996C10.408 18.652 10.112 19.148 9.688 19.484C9.264 19.82 8.676 19.988 7.924 19.988C7.068 19.988 6.408 19.764 5.944 19.316C5.48 18.868 5.22 18.304 5.164 17.624H6.424ZM7.948 15.584C8.428 15.584 8.804 15.436 9.076 15.14C9.356 14.836 9.496 14.436 9.496 13.94C9.496 13.388 9.348 12.96 9.052 12.656C8.764 12.344 8.368 12.188 7.864 12.188C7.36 12.188 6.96 12.348 6.664 12.668C6.376 12.98 6.232 13.392 6.232 13.904C6.232 14.392 6.372 14.796 6.652 15.116C6.94 15.428 7.372 15.584 7.948 15.584ZM17.9772 12.428H13.9572V14.816C14.1252 14.592 14.3732 14.404 14.7012 14.252C15.0372 14.1 15.3932 14.024 15.7692 14.024C16.4412 14.024 16.9852 14.168 17.4012 14.456C17.8252 14.744 18.1252 15.108 18.3012 15.548C18.4852 15.988 18.5772 16.452 18.5772 16.94C18.5772 17.532 18.4612 18.06 18.2292 18.524C18.0052 18.98 17.6652 19.34 17.2092 19.604C16.7612 19.868 16.2092 20 15.5532 20C14.6812 20 13.9812 19.784 13.4532 19.352C12.9252 18.92 12.6092 18.348 12.5052 17.636H13.8372C13.9252 18.012 14.1212 18.312 14.4252 18.536C14.7292 18.752 15.1092 18.86 15.5652 18.86C16.1332 18.86 16.5572 18.688 16.8372 18.344C17.1252 18 17.2692 17.544 17.2692 16.976C17.2692 16.4 17.1252 15.96 16.8372 15.656C16.5492 15.344 16.1252 15.188 15.5652 15.188C15.1732 15.188 14.8412 15.288 14.5692 15.488C14.3052 15.68 14.1132 15.944 13.9932 16.28H12.6972V11.228H17.9772V12.428ZM19.7853 13.364C19.7853 12.78 19.9533 12.324 20.2893 11.996C20.6333 11.66 21.0733 11.492 21.6093 11.492C22.1453 11.492 22.5813 11.66 22.9173 11.996C23.2613 12.324 23.4333 12.78 23.4333 13.364C23.4333 13.948 23.2613 14.408 22.9173 14.744C22.5813 15.08 22.1453 15.248 21.6093 15.248C21.0733 15.248 20.6333 15.08 20.2893 14.744C19.9533 14.408 19.7853 13.948 19.7853 13.364ZM27.1053 11.648L22.3173 20H20.9733L25.7613 11.648H27.1053ZM21.6093 12.32C21.1053 12.32 20.8533 12.668 20.8533 13.364C20.8533 14.068 21.1053 14.42 21.6093 14.42C21.8493 14.42 22.0333 14.336 22.1613 14.168C22.2973 13.992 22.3652 13.724 22.3652 13.364C22.3652 12.668 22.1133 12.32 21.6093 12.32ZM24.6693 18.272C24.6693 17.688 24.8373 17.232 25.1733 16.904C25.5173 16.568 25.9573 16.4 26.4933 16.4C27.0213 16.4 27.4533 16.568 27.7893 16.904C28.1333 17.232 28.3053 17.688 28.3053 18.272C28.3053 18.856 28.1333 19.316 27.7893 19.652C27.4533 19.988 27.0213 20.156 26.4933 20.156C25.9573 20.156 25.5173 19.988 25.1733 19.652C24.8373 19.316 24.6693 18.856 24.6693 18.272ZM26.4813 17.228C25.9773 17.228 25.7253 17.576 25.7253 18.272C25.7253 18.968 25.9773 19.316 26.4813 19.316C26.9853 19.316 27.2373 18.968 27.2373 18.272C27.2373 17.576 26.9853 17.228 26.4813 17.228Z" fill="#459173"/>
</svg>
