<svg width="56" height="56" viewBox="0 0 56 56" fill="none" xmlns="http://www.w3.org/2000/svg">
<circle cx="28" cy="28" r="28" fill="#FBEAE9"/>
<path d="M20.7825 18.7201C20.213 18.1506 19.2896 18.1506 18.7201 18.7201C18.1506 19.2896 18.1506 20.213 18.7201 20.7825L25.9385 28.0009L18.7201 35.2193C18.1506 35.7888 18.1506 36.7121 18.7201 37.2817C19.2896 37.8512 20.213 37.8512 20.7825 37.2817L28.0009 30.0633L35.2193 37.2817C35.7888 37.8512 36.7121 37.8512 37.2817 37.2817C37.8512 36.7121 37.8512 35.7888 37.2817 35.2193L30.0633 28.0009L37.2817 20.7825C37.8512 20.213 37.8512 19.2896 37.2817 18.7201C36.7121 18.1506 35.7888 18.1506 35.2193 18.7201L28.0009 25.9385L20.7825 18.7201Z" fill="#D42620"/>
</svg>
