<svg width="200" height="73" viewBox="0 0 200 73" fill="none" xmlns="http://www.w3.org/2000/svg">
<path fill-rule="evenodd" clip-rule="evenodd" d="M0 36.5C0 19.9315 13.4315 6.5 30 6.5C46.5685 6.5 60 19.9315 60 36.5C60 53.0685 46.5685 66.5 30 66.5C13.4315 66.5 0 53.0685 0 36.5ZM23 28.6601H30.5833C32.0331 28.6601 33.2083 29.8354 33.2083 31.2851V59.2851H25.625C24.1753 59.2851 23 58.1099 23 56.6601V28.6601ZM29.8889 16.1539C29.4116 15.6767 28.7644 15.4085 28.0895 15.4085C27.4146 15.4085 26.7673 15.6767 26.2901 16.1539C25.8128 16.6311 25.5447 17.2784 25.5447 17.9533C25.5447 18.6282 25.8128 19.2754 26.2901 19.7527C26.7673 20.2299 27.4146 20.498 28.0895 20.498C28.7644 20.498 29.4116 20.2299 29.8889 19.7527C30.3661 19.2754 30.6342 18.6282 30.6342 17.9533C30.6342 17.2784 30.3661 16.6311 29.8889 16.1539ZM33.1789 24.3151C33.1789 22.6229 29.7881 21.7704 28.0895 21.7704C26.3909 21.7704 23 22.6229 23 24.3151V25.5875H33.1789V24.3151ZM33.0262 20.2626C34.3113 18.9775 34.3113 17.0372 33.0262 15.6376L31.9575 16.7127C32.4918 17.4634 32.4918 18.4368 31.9575 19.1875L33.0262 20.2626ZM35.132 22.4066C37.6131 19.9318 37.6322 16.0765 35.132 13.5L34.095 14.537C35.8573 16.4582 35.8573 19.3465 34.095 21.3696L35.132 22.4066Z" fill="white"/>
<path d="M85.4 58.5V16.5H104.12C109.4 16.5 113.54 18.06 116.24 20.7C118.46 23.04 119.72 26.1 119.72 29.76V29.88C119.72 36.78 115.58 40.92 109.76 42.6L121.1 58.5H112.34L102.02 43.86H92.78V58.5H85.4ZM92.78 37.32H103.58C108.86 37.32 112.22 34.62 112.22 30.3V30.18C112.22 25.62 109.04 23.22 103.52 23.22H92.78V37.32ZM141.853 59.22C132.733 59.22 125.593 52.56 125.593 42.78V42.66C125.593 33.54 132.013 26.16 141.073 26.16C151.153 26.16 156.253 34.08 156.253 43.2C156.253 43.86 156.193 44.52 156.133 45.24H132.853C133.633 50.46 137.233 53.28 141.973 53.28C145.573 53.28 147.973 51.96 150.553 49.5L154.813 53.28C151.753 56.88 147.673 59.22 141.853 59.22ZM132.793 40.44H149.053C148.573 35.82 145.813 32.1 141.013 32.1C136.513 32.1 133.453 35.46 132.793 40.44ZM163.484 68.1V26.82H170.804V32.1C173.144 28.8 176.384 26.16 181.604 26.16C189.044 26.16 196.304 32.04 196.304 42.6V42.72C196.304 53.28 189.104 59.16 181.604 59.16C176.324 59.16 173.024 56.52 170.804 53.58V68.1H163.484ZM179.864 52.86C184.844 52.86 188.924 48.96 188.924 42.72V42.6C188.924 36.48 184.724 32.46 179.864 32.46C174.884 32.46 170.624 36.54 170.624 42.6V42.72C170.624 48.78 174.884 52.86 179.864 52.86Z" fill="white"/>
</svg>
