<svg width="18" height="18" viewBox="0 0 18 18" fill="none" xmlns="http://www.w3.org/2000/svg">
<path d="M9.11807 7.45393C9.35328 7.27752 9.40971 6.94809 9.24662 6.70346C9.0527 6.41258 8.64115 6.37183 8.39396 6.61903L7.92389 7.08909C7.59845 7.41453 7.07082 7.41453 6.74538 7.08909C6.41994 6.76366 6.41994 6.23602 6.74538 5.91058L7.21545 5.44052C8.20634 4.44963 9.85605 4.61298 10.6334 5.77896C11.2871 6.75959 11.0609 8.08012 10.1181 8.78726L10.0776 8.81761C9.92465 8.93232 9.83463 9.11236 9.83463 9.30356L9.83463 9.4165C9.83463 9.87674 9.46154 10.2498 9.0013 10.2498C8.54106 10.2498 8.16797 9.87674 8.16797 9.4165L8.16797 9.30355C8.16797 8.58776 8.50498 7.91375 9.07761 7.48427L9.11807 7.45393Z" fill="black"/>
<path d="M8.16797 11.9165C8.16797 12.3767 8.54106 12.7498 9.0013 12.7498C9.46154 12.7498 9.83464 12.3767 9.83464 11.9165C9.83464 11.4563 9.46154 11.0832 9.0013 11.0832C8.54107 11.0832 8.16797 11.4563 8.16797 11.9165Z" fill="black"/>
<path fill-rule="evenodd" clip-rule="evenodd" d="M0.667969 8.99984C0.667969 4.39746 4.39893 0.666504 9.0013 0.666504C13.6037 0.666504 17.3346 4.39746 17.3346 8.99984C17.3346 13.6022 13.6037 17.3332 9.0013 17.3332C4.39893 17.3332 0.667969 13.6022 0.667969 8.99984ZM9.0013 2.33317C5.3194 2.33317 2.33464 5.31794 2.33464 8.99984C2.33464 12.6817 5.3194 15.6665 9.0013 15.6665C12.6832 15.6665 15.668 12.6817 15.668 8.99984C15.668 5.31794 12.6832 2.33317 9.0013 2.33317Z" fill="black"/>
</svg>
