<svg width="17" height="16" viewBox="0 0 17 16" fill="none" xmlns="http://www.w3.org/2000/svg">
<path d="M15.0407 16.0002L9.44071 10.4002C8.99627 10.7558 8.48516 11.0373 7.90738 11.2447C7.3296 11.4521 6.71479 11.5558 6.06293 11.5558C4.44812 11.5558 3.08145 10.9965 1.96293 9.87802C0.844416 8.7595 0.285156 7.39284 0.285156 5.77802C0.285156 4.16321 0.844416 2.79654 1.96293 1.67802C3.08145 0.559503 4.44812 0.000244141 6.06293 0.000244141C7.67775 0.000244141 9.04442 0.559503 10.1629 1.67802C11.2815 2.79654 11.8407 4.16321 11.8407 5.77802C11.8407 6.42987 11.737 7.04469 11.5296 7.62247C11.3222 8.20024 11.0407 8.71136 10.6852 9.1558L16.2852 14.7558L15.0407 16.0002ZM6.06293 9.77802C7.17405 9.77802 8.11849 9.38913 8.89627 8.61135C9.67405 7.83358 10.0629 6.88913 10.0629 5.77802C10.0629 4.66691 9.67405 3.72247 8.89627 2.94469C8.11849 2.16691 7.17405 1.77802 6.06293 1.77802C4.95182 1.77802 4.00738 2.16691 3.2296 2.94469C2.45182 3.72247 2.06293 4.66691 2.06293 5.77802C2.06293 6.88913 2.45182 7.83358 3.2296 8.61135C4.00738 9.38913 4.95182 9.77802 6.06293 9.77802Z" fill="#92A5B5"/>
</svg>
