<svg width="17" height="19" viewBox="0 0 17 19" fill="none" xmlns="http://www.w3.org/2000/svg">
<path fill-rule="evenodd" clip-rule="evenodd" d="M2.83203 4.83317C2.83203 2.53198 4.69751 0.666504 6.9987 0.666504C9.29989 0.666504 11.1654 2.53198 11.1654 4.83317C11.1654 7.13436 9.29989 8.99984 6.9987 8.99984C4.69751 8.99984 2.83203 7.13436 2.83203 4.83317ZM6.9987 2.33317C5.61799 2.33317 4.4987 3.45246 4.4987 4.83317C4.4987 6.21388 5.61799 7.33317 6.9987 7.33317C8.37941 7.33317 9.4987 6.21388 9.4987 4.83317C9.4987 3.45246 8.37941 2.33317 6.9987 2.33317Z" fill="black"/>
<path fill-rule="evenodd" clip-rule="evenodd" d="M2.46156 17.2643C3.85688 17.875 5.71494 18.1665 6.9987 18.1665C8.28245 18.1665 10.1405 17.875 11.5358 17.2643C12.2208 16.9645 12.9175 16.5354 13.3222 15.9143C13.5351 15.5877 13.6697 15.2029 13.6653 14.7733C13.6609 14.3477 13.5208 13.9399 13.2854 13.5605C12.1443 11.7212 9.8097 9.83317 6.9987 9.83317C4.18769 9.83317 1.85313 11.7212 0.71196 13.5605C0.476564 13.9399 0.336507 14.3477 0.332136 14.7733C0.327726 15.2029 0.462295 15.5877 0.675159 15.9143C1.07991 16.5354 1.77656 16.9645 2.46156 17.2643ZM1.99872 14.7905C1.99934 14.7296 2.01846 14.616 2.12819 14.4392C3.06332 12.932 4.92842 11.4998 6.9987 11.4998C9.06898 11.4998 10.9341 12.932 11.8692 14.4392C11.9789 14.616 11.9981 14.7296 11.9987 14.7905C11.9993 14.8474 11.9846 14.9142 11.9259 15.0044C11.7874 15.2169 11.4511 15.4821 10.8676 15.7375C9.72583 16.2372 8.10433 16.4998 6.9987 16.4998C5.89306 16.4998 4.27157 16.2372 3.1298 15.7375C2.54626 15.4821 2.20998 15.2169 2.0715 15.0044C2.01275 14.9142 1.99813 14.8474 1.99872 14.7905Z" fill="black"/>
<path d="M15.9121 2.50575C16.2376 2.18031 16.2376 1.65267 15.9121 1.32724C15.5867 1.0018 15.059 1.0018 14.7336 1.32723L13.118 2.94285L12.8831 2.70794C12.5576 2.3825 12.03 2.38251 11.7046 2.70794C11.3791 3.03338 11.3791 3.56102 11.7046 3.88645L12.5287 4.71061C12.8542 5.03605 13.3818 5.03605 13.7072 4.71061L15.9121 2.50575Z" fill="black"/>
</svg>
