<svg width="18" height="17" viewBox="0 0 18 17" fill="none" xmlns="http://www.w3.org/2000/svg">
<path fill-rule="evenodd" clip-rule="evenodd" d="M7.89819 3.14293C8.35772 2.28569 9.64373 2.28569 10.1033 3.14292L15.3626 12.9538C15.7612 13.6974 15.2307 14.6667 14.26 14.6667H3.74143C2.77079 14.6667 2.2403 13.6974 2.63888 12.9538L7.89819 3.14293ZM11.866 2.198C10.6523 -0.0660032 7.34914 -0.0659976 6.13548 2.198L0.876182 12.0089C-0.279774 14.1653 1.35137 16.6667 3.74143 16.6667H14.26C16.6501 16.6667 18.2812 14.1653 17.1253 12.0089L11.866 2.198ZM9.00073 3.83333C9.55301 3.83333 10.0007 4.28105 10.0007 4.83333V10.6667C10.0007 11.219 9.55301 11.6667 9.00073 11.6667C8.44844 11.6667 8.00073 11.219 8.00073 10.6667L8.00073 4.83333C8.00073 4.28105 8.44844 3.83333 9.00073 3.83333ZM9.00073 14C8.42543 14 7.95906 13.5336 7.95906 12.9583C7.95906 12.383 8.42543 11.9167 9.00073 11.9167C9.57602 11.9167 10.0424 12.383 10.0424 12.9583C10.0424 13.5336 9.57602 14 9.00073 14Z" fill="black"/>
</svg>
