<svg width="17" height="20" viewBox="0 0 17 20" fill="none" xmlns="http://www.w3.org/2000/svg">
<g clip-path="url(#clip0_1551_11688)">
<path d="M13.8627 10.5232C13.8903 13.4969 16.4715 14.4865 16.5 14.4991C16.4781 14.5689 16.0876 15.9093 15.1402 17.2939C14.3212 18.4909 13.4711 19.6836 12.1321 19.7082C10.8165 19.7325 10.3933 18.9281 8.88908 18.9281C7.38527 18.9281 6.9152 19.6836 5.6697 19.7325C4.3772 19.7814 3.39295 18.4381 2.5672 17.2454C0.879704 14.8059 -0.409859 10.3517 1.3217 7.34505C2.18189 5.85193 3.7192 4.90649 5.3877 4.88224C6.65689 4.85805 7.85489 5.73611 8.63077 5.73611C9.40614 5.73611 10.862 4.68018 12.3924 4.83524C13.033 4.86193 14.8315 5.09399 15.9863 6.78436C15.8932 6.84205 13.8404 8.03711 13.8627 10.5232M11.39 3.22124C12.0763 2.39061 12.5381 1.23436 12.4121 0.0838013C11.423 0.123551 10.227 0.742926 9.51745 1.57305C8.88164 2.30824 8.32483 3.48486 8.47508 4.61261C9.57758 4.69793 10.7038 4.05236 11.39 3.22124Z" fill="black"/>
</g>
<defs>
<clipPath id="clip0_1551_11688">
<rect width="16" height="19.6875" fill="white" transform="translate(0.5 0.0838013)"/>
</clipPath>
</defs>
</svg>
