<svg width="18" height="19" viewBox="0 0 18 19" fill="none" xmlns="http://www.w3.org/2000/svg">
<mask id="mask0_3437_16411" style="mask-type:luminance" maskUnits="userSpaceOnUse" x="0" y="0" width="18" height="19">
<path d="M17.6831 7.80193H9.16622V11.3333H14.0686C13.6116 13.5768 11.7005 14.8647 9.16622 14.8647C6.17491 14.8647 3.76525 12.4551 3.76525 9.46377C3.76525 6.47246 6.17491 4.0628 9.16622 4.0628C10.4541 4.0628 11.6174 4.5198 12.5314 5.26763L15.1904 2.60869C13.5701 1.19613 11.4928 0.323669 9.16622 0.323669C4.09762 0.323669 0.026123 4.39517 0.026123 9.46377C0.026123 14.5324 4.09762 18.6039 9.16622 18.6039C13.7363 18.6039 17.8909 15.2802 17.8909 9.46377C17.8909 8.92367 17.8078 8.34203 17.6831 7.80193Z" fill="white"/>
</mask>
<g mask="url(#mask0_3437_16411)">
<path d="M-0.80481 14.8647V4.06274L6.25799 9.46371L-0.80481 14.8647Z" fill="#FBBC05"/>
</g>
<mask id="mask1_3437_16411" style="mask-type:luminance" maskUnits="userSpaceOnUse" x="0" y="0" width="18" height="19">
<path d="M17.6831 7.80193H9.16622V11.3333H14.0686C13.6116 13.5768 11.7005 14.8647 9.16622 14.8647C6.17491 14.8647 3.76525 12.4551 3.76525 9.46377C3.76525 6.47246 6.17491 4.0628 9.16622 4.0628C10.4541 4.0628 11.6174 4.5198 12.5314 5.26763L15.1904 2.60869C13.5701 1.19613 11.4928 0.323669 9.16622 0.323669C4.09762 0.323669 0.026123 4.39517 0.026123 9.46377C0.026123 14.5324 4.09762 18.6039 9.16622 18.6039C13.7363 18.6039 17.8909 15.2802 17.8909 9.46377C17.8909 8.92367 17.8078 8.34203 17.6831 7.80193Z" fill="white"/>
</mask>
<g mask="url(#mask1_3437_16411)">
<path d="M-0.80481 4.06272L6.25799 9.46369L9.16621 6.92939L19.1372 5.3091V-0.507324H-0.80481V4.06272Z" fill="#EA4335"/>
</g>
<mask id="mask2_3437_16411" style="mask-type:luminance" maskUnits="userSpaceOnUse" x="0" y="0" width="18" height="19">
<path d="M17.6831 7.80193H9.16622V11.3333H14.0686C13.6116 13.5768 11.7005 14.8647 9.16622 14.8647C6.17491 14.8647 3.76525 12.4551 3.76525 9.46377C3.76525 6.47246 6.17491 4.0628 9.16622 4.0628C10.4541 4.0628 11.6174 4.5198 12.5314 5.26763L15.1904 2.60869C13.5701 1.19613 11.4928 0.323669 9.16622 0.323669C4.09762 0.323669 0.026123 4.39517 0.026123 9.46377C0.026123 14.5324 4.09762 18.6039 9.16622 18.6039C13.7363 18.6039 17.8909 15.2802 17.8909 9.46377C17.8909 8.92367 17.8078 8.34203 17.6831 7.80193Z" fill="white"/>
</mask>
<g mask="url(#mask2_3437_16411)">
<path d="M-0.80481 14.8647L11.659 5.3091L14.9411 5.72456L19.1372 -0.507324V19.4347H-0.80481V14.8647Z" fill="#34A853"/>
</g>
<mask id="mask3_3437_16411" style="mask-type:luminance" maskUnits="userSpaceOnUse" x="0" y="0" width="18" height="19">
<path d="M17.6831 7.80193H9.16622V11.3333H14.0686C13.6116 13.5768 11.7005 14.8647 9.16622 14.8647C6.17491 14.8647 3.76525 12.4551 3.76525 9.46377C3.76525 6.47246 6.17491 4.0628 9.16622 4.0628C10.4541 4.0628 11.6174 4.5198 12.5314 5.26763L15.1904 2.60869C13.5701 1.19613 11.4928 0.323669 9.16622 0.323669C4.09762 0.323669 0.026123 4.39517 0.026123 9.46377C0.026123 14.5324 4.09762 18.6039 9.16622 18.6039C13.7363 18.6039 17.8909 15.2802 17.8909 9.46377C17.8909 8.92367 17.8078 8.34203 17.6831 7.80193Z" fill="white"/>
</mask>
<g mask="url(#mask3_3437_16411)">
<path d="M19.1373 19.4347L6.25803 9.46371L4.59619 8.21733L19.1373 4.06274V19.4347Z" fill="#4285F4"/>
</g>
</svg>
