<svg width="101" height="38" viewBox="0 0 101 38" fill="none" xmlns="http://www.w3.org/2000/svg">
<path fill-rule="evenodd" clip-rule="evenodd" d="M0 19C0 10.2026 7.13175 3.0708 15.9292 3.0708C24.7267 3.0708 31.8584 10.2026 31.8584 19C31.8584 27.7975 24.7267 34.9292 15.9292 34.9292C7.13175 34.9292 0 27.7975 0 19ZM10.6195 15.9688H14.646C15.4158 15.9688 16.0398 16.5928 16.0398 17.3626V32.2299H12.0133C11.2435 32.2299 10.6195 31.6059 10.6195 30.8361V15.9688ZM15.4094 7.63956C15.0776 7.30773 14.6276 7.12131 14.1583 7.12131C13.689 7.12131 13.2389 7.30773 12.9071 7.63956C12.5753 7.97139 12.3889 8.42144 12.3889 8.89072C12.3889 9.36 12.5753 9.81005 12.9071 10.1419C13.2389 10.4737 13.689 10.6601 14.1583 10.6601C14.6276 10.6601 15.0776 10.4737 15.4094 10.1419C15.7413 9.81005 15.9277 9.36 15.9277 8.89072C15.9277 8.42144 15.7413 7.97139 15.4094 7.63956ZM17.6971 13.3142C17.6971 12.1376 15.3394 11.5448 14.1583 11.5448C12.9772 11.5448 10.6195 12.1376 10.6195 13.3142V14.1989H17.6971V13.3142ZM17.5909 10.4965C18.4845 9.60291 18.4845 8.25373 17.5909 7.28056L16.8478 8.02813C17.2194 8.55011 17.2194 9.22691 16.8478 9.74888L17.5909 10.4965ZM19.0551 11.9872C20.7803 10.2664 20.7936 7.58578 19.0551 5.79426L18.3341 6.51529C19.5594 7.85119 19.5594 9.85947 18.3341 11.2662L19.0551 11.9872Z" fill="#459173"/>
<path d="M39.1504 30V7.69911H49.0903C51.8938 7.69911 54.092 8.52743 55.5257 9.9292C56.7044 11.1717 57.3735 12.7965 57.3735 14.7398V14.8035C57.3735 18.4673 55.1752 20.6655 52.085 21.5575L58.1062 30H53.4549L47.9752 22.2265H43.069V30H39.1504ZM43.069 18.754H48.8035C51.6071 18.754 53.3911 17.3204 53.3911 15.0265V14.9628C53.3911 12.5416 51.7027 11.2673 48.7717 11.2673H43.069V18.754ZM69.1257 30.3823C64.2832 30.3823 60.4921 26.846 60.4921 21.6531V21.5894C60.4921 16.7469 63.9009 12.8283 68.7116 12.8283C74.0638 12.8283 76.7717 17.0336 76.7717 21.8761C76.7717 22.2265 76.7399 22.577 76.708 22.9593H64.347C64.7611 25.731 66.6726 27.2283 69.1894 27.2283C71.1009 27.2283 72.3753 26.5274 73.7452 25.2212L76.0071 27.2283C74.3824 29.1398 72.216 30.3823 69.1257 30.3823ZM64.3151 20.4106H72.9487C72.6939 17.9575 71.2284 15.9823 68.6797 15.9823C66.2903 15.9823 64.6655 17.7664 64.3151 20.4106ZM80.6112 35.0973V13.1788H84.4979V15.9823C85.7404 14.2301 87.4607 12.8283 90.2324 12.8283C94.1829 12.8283 98.0377 15.9504 98.0377 21.5575V21.6212C98.0377 27.2283 94.2147 30.3504 90.2324 30.3504C87.4289 30.3504 85.6767 28.9487 84.4979 27.3876V35.0973H80.6112ZM89.3085 27.0053C91.9528 27.0053 94.1191 24.9345 94.1191 21.6212V21.5575C94.1191 18.308 91.889 16.1735 89.3085 16.1735C86.6643 16.1735 84.4023 18.3398 84.4023 21.5575V21.6212C84.4023 24.8389 86.6643 27.0053 89.3085 27.0053Z" fill="#459173"/>
</svg>
