<svg width="38" height="38" viewBox="0 0 38 38" fill="none" xmlns="http://www.w3.org/2000/svg">
<circle opacity="0.4" cx="19" cy="19" r="19" fill="#6FCF97"/>
<path d="M22.7699 11.4604H15.2302C13.1492 11.4604 11.4603 13.1418 11.4603 15.2152V19.7239V20.4779C11.4603 22.5513 13.1492 24.2327 15.2302 24.2327H16.3611C16.5647 24.2327 16.8361 24.3684 16.9643 24.5343L18.0952 26.0347C18.5929 26.6981 19.4072 26.6981 19.9048 26.0347L21.0357 24.5343C21.179 24.3458 21.4052 24.2327 21.6389 24.2327H22.7699C24.8508 24.2327 26.5397 22.5513 26.5397 20.4779V15.2152C26.5397 13.1418 24.8508 11.4604 22.7699 11.4604ZM15.9841 19.0001C15.5619 19.0001 15.2302 18.6608 15.2302 18.2462C15.2302 17.8315 15.5695 17.4922 15.9841 17.4922C16.3988 17.4922 16.7381 17.8315 16.7381 18.2462C16.7381 18.6608 16.4064 19.0001 15.9841 19.0001ZM19 19.0001C18.5778 19.0001 18.246 18.6608 18.246 18.2462C18.246 17.8315 18.5853 17.4922 19 17.4922C19.4147 17.4922 19.754 17.8315 19.754 18.2462C19.754 18.6608 19.4222 19.0001 19 19.0001ZM22.0159 19.0001C21.5937 19.0001 21.2619 18.6608 21.2619 18.2462C21.2619 17.8315 21.6012 17.4922 22.0159 17.4922C22.4306 17.4922 22.7699 17.8315 22.7699 18.2462C22.7699 18.6608 22.4381 19.0001 22.0159 19.0001Z" fill="#459173"/>
<circle cx="31.6667" cy="6.3334" r="3.61905" fill="#EB5757"/>
</svg>
