<svg width="38" height="38" viewBox="0 0 38 38" fill="none" xmlns="http://www.w3.org/2000/svg">
<circle opacity="0.4" cx="19" cy="19" r="19" fill="#6FCF97"/>
<path d="M26.3512 18.4346V19C26.3512 19.9676 26.1602 20.9257 25.7891 21.8193C25.4181 22.7129 24.8742 23.5244 24.1888 24.2074C23.5034 24.8903 22.69 25.4313 21.7951 25.7992C20.9001 26.1671 19.9414 26.3547 18.9738 26.3512C15.1569 26.3378 12.0468 23.3782 11.6849 19.6517C11.6809 19.6032 11.6896 19.5545 11.7101 19.5103C11.7305 19.4661 11.762 19.4279 11.8016 19.3995C11.8411 19.371 11.8873 19.3533 11.9357 19.3479C11.9841 19.3426 12.0331 19.3499 12.0779 19.369C12.5865 19.5825 13.1508 19.6247 13.6855 19.4891C14.2202 19.3536 14.6962 19.0477 15.0417 18.6176C15.268 18.8991 15.5518 19.1291 15.8741 19.2921C16.1965 19.4552 16.5499 19.5476 16.9107 19.5632C17.2716 19.5788 17.6317 19.5172 17.9668 19.3825C18.302 19.2479 18.6046 19.0433 18.8544 18.7823C19.0833 19.1542 19.3945 19.4686 19.7641 19.7012C19.3506 20.0176 19.0155 20.425 18.785 20.8918C18.5544 21.3586 18.4345 21.8722 18.4345 22.3929C18.4342 22.4713 18.4503 22.5489 18.4816 22.6208C18.5129 22.6927 18.5589 22.7573 18.6165 22.8105C18.6742 22.8636 18.7422 22.9043 18.8164 22.9297C18.8906 22.9552 18.9692 22.9649 19.0474 22.9584C19.1909 22.9429 19.3234 22.8745 19.4192 22.7666C19.515 22.6586 19.5672 22.5188 19.5655 22.3745C19.5703 21.7778 19.8108 21.2072 20.2344 20.787C20.6581 20.3668 21.2307 20.131 21.8274 20.131C21.9049 20.1312 21.9816 20.1154 22.0528 20.0847C22.124 20.0539 22.188 20.0089 22.2411 19.9523C22.2941 19.8958 22.3349 19.829 22.3611 19.756C22.3872 19.683 22.398 19.6054 22.3929 19.528C22.3802 19.3827 22.3131 19.2475 22.2049 19.1496C22.0968 19.0517 21.9556 18.9982 21.8097 19H21.2619C20.812 19 20.3805 18.8213 20.0623 18.5032C19.7442 18.185 19.5655 17.7535 19.5655 17.3036V16.1727H24.0893C24.6892 16.1727 25.2645 16.411 25.6887 16.8352C26.1129 17.2593 26.3512 17.8347 26.3512 18.4346ZM13.1141 18.4346C13.8803 18.4063 14.4762 17.7539 14.4762 16.9869V15.3612C14.4762 14.5914 13.8803 13.939 13.1141 13.9107C12.9241 13.9038 12.7348 13.9352 12.5572 14.0032C12.3797 14.0711 12.2177 14.1741 12.0809 14.3061C11.9442 14.4381 11.8354 14.5963 11.7611 14.7713C11.6869 14.9462 11.6487 15.1344 11.6488 15.3244V17.0209C11.6487 17.2109 11.6869 17.3991 11.7611 17.5741C11.8354 17.749 11.9442 17.9072 12.0809 18.0392C12.2177 18.1712 12.3797 18.2742 12.5572 18.3421C12.7348 18.4101 12.9241 18.4415 13.1141 18.4346ZM17.0724 18.4346C17.8386 18.407 18.4345 17.7546 18.4345 16.9876V13.6655C18.4345 12.8985 17.8386 12.2461 17.0724 12.2186C16.8828 12.2116 16.6938 12.2429 16.5166 12.3106C16.3393 12.3783 16.1775 12.4809 16.0408 12.6125C15.9041 12.744 15.7952 12.9017 15.7207 13.0761C15.6462 13.2506 15.6076 13.4383 15.6071 13.628V17.0209C15.607 17.2109 15.6452 17.3991 15.7195 17.5741C15.7937 17.749 15.9025 17.9072 16.0393 18.0392C16.1761 18.1712 16.3381 18.2742 16.5156 18.3421C16.6931 18.4101 16.8825 18.4415 17.0724 18.4346ZM22.3929 13.628C22.393 13.4379 22.3548 13.2498 22.2805 13.0748C22.2063 12.8999 22.0975 12.7417 21.9607 12.6097C21.8239 12.4777 21.6619 12.3747 21.4844 12.3068C21.3069 12.2388 21.1175 12.2074 20.9276 12.2143C20.1613 12.2426 19.5655 12.895 19.5655 13.6619V15.0417H22.1101C22.1851 15.0417 22.257 15.0119 22.31 14.9589C22.3631 14.9059 22.3929 14.834 22.3929 14.759V13.628Z" fill="#459173"/>
<circle cx="31.6667" cy="6.3334" r="3.61905" fill="#EB5757"/>
</svg>
