<svg width="38" height="38" viewBox="0 0 38 38" fill="none" xmlns="http://www.w3.org/2000/svg">
<circle opacity="0.4" cx="19" cy="19" r="19" fill="#6FCF97"/>
<path d="M24.5341 20.8775L23.7801 19.6259C23.6218 19.347 23.4785 18.8192 23.4785 18.5101V16.6025C23.4785 14.8307 22.438 13.3001 20.9377 12.5839C20.5456 11.8902 19.8218 11.4604 18.9924 11.4604C18.1706 11.4604 17.4317 11.9053 17.0396 12.6065C15.5694 13.3378 14.5515 14.8533 14.5515 16.6025V18.5101C14.5515 18.8192 14.4083 19.347 14.25 19.6184L13.4884 20.8775C13.1869 21.3827 13.119 21.9406 13.3075 22.4533C13.4884 22.9585 13.9182 23.3505 14.4761 23.539C15.9388 24.0366 17.4769 24.2779 19.015 24.2779C20.5531 24.2779 22.0912 24.0366 23.5539 23.5466C24.0817 23.3731 24.4888 22.9735 24.6849 22.4533C24.8809 21.9331 24.8281 21.3601 24.5341 20.8775Z" fill="#459173"/>
<path d="M21.1335 25.0393C20.8169 25.9139 19.9799 26.5397 18.9998 26.5397C18.4042 26.5397 17.8161 26.2984 17.4014 25.8686C17.1601 25.6425 16.9792 25.3409 16.8736 25.0317C16.9716 25.0468 17.0696 25.0544 17.1752 25.0694C17.3486 25.0921 17.5295 25.1147 17.7105 25.1298C18.1403 25.1675 18.5776 25.1901 19.0149 25.1901C19.4446 25.1901 19.8744 25.1675 20.2966 25.1298C20.4549 25.1147 20.6133 25.1071 20.7641 25.0845C20.8847 25.0694 21.0053 25.0544 21.1335 25.0393Z" fill="#459173"/>
<circle cx="31.6667" cy="6.3334" r="3.61905" fill="#EB5757"/>
</svg>
