<svg width="38" height="38" viewBox="0 0 38 38" fill="none" xmlns="http://www.w3.org/2000/svg">
<circle opacity="0.4" cx="19" cy="19" r="19" fill="#6FCF97"/>
<path d="M26.2078 18.0501L25.1824 16.8588C24.9864 16.6326 24.8281 16.2104 24.8281 15.9088V14.627C24.8281 13.8278 24.1721 13.1719 23.3729 13.1719H22.0912C21.7971 13.1719 21.3674 13.0136 21.1412 12.8175L19.9499 11.7921C19.4297 11.3473 18.5777 11.3473 18.0499 11.7921L16.8662 12.8251C16.64 13.0136 16.2102 13.1719 15.9162 13.1719H14.6118C13.8126 13.1719 13.1566 13.8278 13.1566 14.627V15.9163C13.1566 16.2104 12.9983 16.6326 12.8098 16.8588L11.792 18.0576C11.3547 18.5778 11.3547 19.4223 11.792 19.9425L12.8098 21.1413C12.9983 21.3675 13.1566 21.7897 13.1566 22.0838V23.3731C13.1566 24.1723 13.8126 24.8282 14.6118 24.8282H15.9162C16.2102 24.8282 16.64 24.9866 16.8662 25.1826L18.0574 26.208C18.5777 26.6528 19.4297 26.6528 19.9574 26.208L21.1487 25.1826C21.3749 24.9866 21.7971 24.8282 22.0987 24.8282H23.3805C24.1797 24.8282 24.8356 24.1723 24.8356 23.3731V22.0913C24.8356 21.7973 24.9939 21.3675 25.19 21.1413L26.2154 19.9501C26.6527 19.4298 26.6527 18.5703 26.2078 18.0501ZM22.1364 17.5751L18.4947 21.2167C18.3892 21.3223 18.2459 21.3826 18.0951 21.3826C17.9443 21.3826 17.8011 21.3223 17.6955 21.2167L15.8709 19.3921C15.6523 19.1735 15.6523 18.8116 15.8709 18.5929C16.0896 18.3743 16.4515 18.3743 16.6701 18.5929L18.0951 20.0179L21.3372 16.7759C21.5559 16.5572 21.9178 16.5572 22.1364 16.7759C22.3551 16.9945 22.3551 17.3564 22.1364 17.5751Z" fill="#459173"/>
<circle cx="31.6667" cy="6.3334" r="3.61905" fill="#EB5757"/>
</svg>
